<mxfile host="app.diagrams.net" modified="2022-07-06T16:45:44.553Z" agent="5.0 (Macintosh; Intel Mac OS X 10_15_7) AppleWebKit/605.1.15 (KHTML, like Gecko) Version/15.5 Safari/605.1.15" etag="i5cnfAuZPVyqqrrvMaWY" version="20.0.4" type="github">
  <diagram id="BESASLpa1ns9Zq7yshQQ" name="Page-1">
    <mxGraphModel dx="1405" dy="1030" grid="1" gridSize="10" guides="1" tooltips="1" connect="1" arrows="1" fold="1" page="1" pageScale="1" pageWidth="850" pageHeight="1100" math="0" shadow="0">
      <root>
        <mxCell id="0" />
        <mxCell id="1" parent="0" />
        <mxCell id="Cbtl5HurtMTCQ24Q6cKs-1" value="" style="fillColor=none;strokeColor=none;pointerEvents=0;fontStyle=0;html=1;whiteSpace=wrap;container=1;collapsible=0;childLayout=stackLayout;resizeParent=1;dropTarget=0;fontSize=13;spacing=3.6;strokeOpacity=100;fillOpacity=100;rounded=1;absoluteArcSize=1;arcSize=12;strokeWidth=1.5;" vertex="1" parent="1">
          <mxGeometry x="40" y="130" width="1054.551321165874" height="841.4999999999997" as="geometry" />
        </mxCell>
        <mxCell id="Cbtl5HurtMTCQ24Q6cKs-2" value="Source" style="swimlane;html=1;whiteSpace=wrap;connectable=0;startSize=31.650000000000002;dropTarget=0;rounded=0;spacing=3.6;strokeColor=#b2b2b2;strokeOpacity=100;fillOpacity=100;strokeWidth=1.5;container=1;pointerEvents=0;collapsible=0;recursiveResize=0;fontSize=15;fontColor=#333333;fontStyle=1;spacingLeft=8.4;spacingRight=8.4;spacingTop=2.4;fillColor=#ffa000;" vertex="1" parent="Cbtl5HurtMTCQ24Q6cKs-1">
          <mxGeometry width="180" height="841.4999999999997" as="geometry" />
        </mxCell>
        <mxCell id="Cbtl5HurtMTCQ24Q6cKs-3" value="Build" style="swimlane;html=1;whiteSpace=wrap;connectable=0;startSize=31.650000000000002;dropTarget=0;rounded=0;spacing=3.6;strokeColor=#b2b2b2;strokeOpacity=100;fillOpacity=100;strokeWidth=1.5;container=1;pointerEvents=0;collapsible=0;recursiveResize=0;fontSize=15;fontColor=#333333;fontStyle=1;fillColor=#ffaf28;" vertex="1" parent="Cbtl5HurtMTCQ24Q6cKs-1">
          <mxGeometry x="180" width="180" height="841.4999999999997" as="geometry" />
        </mxCell>
        <mxCell id="Cbtl5HurtMTCQ24Q6cKs-4" value="Test" style="swimlane;html=1;whiteSpace=wrap;connectable=0;startSize=31.650000000000002;dropTarget=0;rounded=0;spacing=3.6;strokeColor=#b2b2b2;strokeOpacity=100;fillOpacity=100;strokeWidth=1.5;container=1;pointerEvents=0;collapsible=0;recursiveResize=0;fontSize=15;fontColor=#333333;fontStyle=1;fillColor=#ffbd50;" vertex="1" parent="Cbtl5HurtMTCQ24Q6cKs-1">
          <mxGeometry x="360" width="180.00000000000003" height="841.4999999999997" as="geometry" />
        </mxCell>
        <mxCell id="Cbtl5HurtMTCQ24Q6cKs-5" value="Internal Deploy" style="swimlane;html=1;whiteSpace=wrap;connectable=0;startSize=31.650000000000002;dropTarget=0;rounded=0;spacing=3.6;strokeColor=#b2b2b2;strokeOpacity=100;fillOpacity=100;strokeWidth=1.5;container=1;pointerEvents=0;collapsible=0;recursiveResize=0;fontSize=15;fontColor=#333333;fontStyle=1;fillColor=#ffcc78;" vertex="1" parent="Cbtl5HurtMTCQ24Q6cKs-1">
          <mxGeometry x="540" width="180" height="841.4999999999997" as="geometry" />
        </mxCell>
        <mxCell id="Cbtl5HurtMTCQ24Q6cKs-6" value="External Deploy" style="swimlane;html=1;whiteSpace=wrap;connectable=0;startSize=31.650000000000002;dropTarget=0;rounded=0;spacing=3.6;strokeColor=#b2b2b2;strokeOpacity=100;fillOpacity=100;strokeWidth=1.5;container=1;pointerEvents=0;collapsible=0;recursiveResize=0;fontSize=15;fontColor=#333333;fontStyle=1;fillColor=#ffd99a;" vertex="1" parent="Cbtl5HurtMTCQ24Q6cKs-1">
          <mxGeometry x="720" width="334.5513211658741" height="841.4999999999997" as="geometry" />
        </mxCell>
        <UserObject label="Firebase Test Lab *" lucidchartObjectId="EEUfGkn~mqC-" id="Cbtl5HurtMTCQ24Q6cKs-7">
          <mxCell style="html=1;overflow=block;blockSpacing=1;whiteSpace=wrap;fontSize=13.3;fontColor=#333333;spacingLeft=8.4;spacingRight=8.4;spacingTop=2.4;spacing=3.6;strokeOpacity=0;fillOpacity=100;rounded=1;absoluteArcSize=1;arcSize=12;fillColor=#ffd99a;strokeWidth=1.5;" vertex="1" parent="1">
            <mxGeometry x="430" y="335" width="120" height="60" as="geometry" />
          </mxCell>
        </UserObject>
        <UserObject label="Flutter Analyze *" lucidchartObjectId="YGUfQMU6uFTP" id="Cbtl5HurtMTCQ24Q6cKs-8">
          <mxCell style="html=1;overflow=block;blockSpacing=1;whiteSpace=wrap;fontSize=13.3;fontColor=#333333;spacingLeft=8.4;spacingRight=8.4;spacingTop=2.4;spacing=3.6;strokeOpacity=0;fillOpacity=100;rounded=1;absoluteArcSize=1;arcSize=12;fillColor=#ffd99a;strokeWidth=1.5;" vertex="1" parent="1">
            <mxGeometry x="250" y="442" width="120" height="60" as="geometry" />
          </mxCell>
        </UserObject>
        <mxCell id="Cbtl5HurtMTCQ24Q6cKs-9" value="" style="group;dropTarget=0;pointerEvents=0;" vertex="1" parent="1">
          <mxGeometry x="248" y="60" width="640" height="45" as="geometry" />
        </mxCell>
        <UserObject label="%filename%" placeholders="1" lucidchartObjectId="o~pBI-dl2Far" id="Cbtl5HurtMTCQ24Q6cKs-10">
          <mxCell style="html=1;overflow=block;blockSpacing=1;whiteSpace=wrap;fontSize=19.7;fontColor=#6f7681;fontStyle=1;align=center;spacingLeft=7;spacingRight=7;spacingTop=2;spacing=3;strokeOpacity=0;fillOpacity=0;rounded=1;absoluteArcSize=1;arcSize=12;fillColor=#ffffff;strokeWidth=1.5;" vertex="1" parent="Cbtl5HurtMTCQ24Q6cKs-9">
            <mxGeometry width="640" height="31" as="geometry" />
          </mxCell>
        </UserObject>
        <UserObject label="%creatorName%  |  %date{mmmm d, yyyy}%" placeholders="1" lucidchartObjectId="o~pBZoW4vasx" id="Cbtl5HurtMTCQ24Q6cKs-11">
          <mxCell style="html=1;overflow=block;blockSpacing=1;whiteSpace=wrap;fontSize=11.5;fontColor=#6f7681;align=center;spacingLeft=7;spacingRight=7;spacingTop=2;spacing=3;strokeOpacity=0;fillOpacity=0;rounded=1;absoluteArcSize=1;arcSize=12;fillColor=#ffffff;strokeWidth=1.5;" vertex="1" parent="Cbtl5HurtMTCQ24Q6cKs-9">
            <mxGeometry y="31" width="640" height="14" as="geometry" />
          </mxCell>
        </UserObject>
        <UserObject label="" lucidchartObjectId="o~pB9U.-gi-~" id="Cbtl5HurtMTCQ24Q6cKs-12">
          <mxCell style="html=1;jettySize=18;whiteSpace=wrap;fontSize=13;fontFamily=Helvetica;strokeColor=#a9afb8;strokeOpacity=100;strokeWidth=1.5;rounded=0;startArrow=none;endArrow=none;" edge="1" parent="Cbtl5HurtMTCQ24Q6cKs-9">
            <mxGeometry width="100" height="100" relative="1" as="geometry">
              <Array as="points" />
              <mxPoint x="137" y="30" as="sourcePoint" />
              <mxPoint x="507" y="30" as="targetPoint" />
            </mxGeometry>
          </mxCell>
        </UserObject>
        <UserObject label="Git Push" lucidchartObjectId="D-quRsc8M1_e" id="Cbtl5HurtMTCQ24Q6cKs-13">
          <mxCell style="html=1;overflow=block;blockSpacing=1;whiteSpace=wrap;fontSize=13.3;fontColor=#333333;fontStyle=2;spacingLeft=8.4;spacingRight=8.4;spacingTop=2.4;spacing=3.6;strokeOpacity=0;fillOpacity=100;rounded=1;absoluteArcSize=1;arcSize=12;fillColor=#ffaf28;strokeWidth=1.5;" vertex="1" parent="1">
            <mxGeometry x="70" y="220" width="120" height="60" as="geometry" />
          </mxCell>
        </UserObject>
        <UserObject label="" lucidchartObjectId="y_quXh_BYrW." id="Cbtl5HurtMTCQ24Q6cKs-14">
          <mxCell style="html=1;jettySize=18;whiteSpace=wrap;fontSize=13;strokeColor=#333333;strokeOpacity=100;strokeWidth=0.8;rounded=1;arcSize=24;edgeStyle=orthogonalEdgeStyle;startArrow=none;endArrow=block;endFill=1;" edge="1" parent="1">
            <mxGeometry width="100" height="100" relative="1" as="geometry">
              <Array as="points" />
              <mxPoint x="175" y="145" as="sourcePoint" />
              <mxPoint x="280" y="145" as="targetPoint" />
            </mxGeometry>
          </mxCell>
        </UserObject>
        <UserObject label="" lucidchartObjectId="A_quB2DTOG9." id="Cbtl5HurtMTCQ24Q6cKs-15">
          <mxCell style="html=1;jettySize=18;whiteSpace=wrap;fontSize=13;strokeColor=#333333;strokeOpacity=100;strokeWidth=0.8;rounded=1;arcSize=24;edgeStyle=orthogonalEdgeStyle;startArrow=none;endArrow=block;endFill=1;" edge="1" parent="1">
            <mxGeometry width="100" height="100" relative="1" as="geometry">
              <Array as="points" />
              <mxPoint x="353" y="145" as="sourcePoint" />
              <mxPoint x="463" y="145" as="targetPoint" />
            </mxGeometry>
          </mxCell>
        </UserObject>
        <UserObject label="Git Clone Repository" lucidchartObjectId="f~quE8AU6eGV" id="Cbtl5HurtMTCQ24Q6cKs-16">
          <mxCell style="html=1;overflow=block;blockSpacing=1;whiteSpace=wrap;fontSize=13.3;fontColor=#333333;fontStyle=2;spacingLeft=8.4;spacingRight=8.4;spacingTop=2.4;spacing=3.6;strokeOpacity=0;fillOpacity=100;rounded=1;absoluteArcSize=1;arcSize=12;fillColor=#ffaf28;strokeWidth=1.5;" vertex="1" parent="1">
            <mxGeometry x="250" y="220" width="120" height="60" as="geometry" />
          </mxCell>
        </UserObject>
        <UserObject label="Flutter Install" lucidchartObjectId="Taruy~UMp3aw" id="Cbtl5HurtMTCQ24Q6cKs-17">
          <mxCell style="html=1;overflow=block;blockSpacing=1;whiteSpace=wrap;fontSize=13.3;fontColor=#333333;fontStyle=2;spacingLeft=8.4;spacingRight=8.4;spacingTop=2.4;spacing=3.6;strokeOpacity=0;fillOpacity=100;rounded=1;absoluteArcSize=1;arcSize=12;fillColor=#ffaf28;strokeWidth=1.5;" vertex="1" parent="1">
            <mxGeometry x="250" y="331" width="120" height="60" as="geometry" />
          </mxCell>
        </UserObject>
        <UserObject label="Flutter Build" lucidchartObjectId="4aruwzESYCTW" id="Cbtl5HurtMTCQ24Q6cKs-18">
          <mxCell style="html=1;overflow=block;blockSpacing=1;whiteSpace=wrap;fontSize=13.3;fontColor=#333333;fontStyle=2;spacingLeft=8.4;spacingRight=8.4;spacingTop=2.4;spacing=3.6;strokeOpacity=0;fillOpacity=100;rounded=1;absoluteArcSize=1;arcSize=12;fillColor=#ffaf28;strokeWidth=1.5;" vertex="1" parent="1">
            <mxGeometry x="250" y="553" width="120" height="60" as="geometry" />
          </mxCell>
        </UserObject>
        <UserObject label="Flutter Test&#xa;(unit/widget)" lucidchartObjectId="NbruNzqdUj3r" id="Cbtl5HurtMTCQ24Q6cKs-19">
          <mxCell style="html=1;overflow=block;blockSpacing=1;whiteSpace=wrap;fontSize=13.3;fontColor=#333333;fontStyle=2;spacingLeft=8.4;spacingRight=8.4;spacingTop=2.4;spacing=3.6;strokeOpacity=0;fillOpacity=100;rounded=1;absoluteArcSize=1;arcSize=12;fillColor=#ffaf28;strokeWidth=1.5;" vertex="1" parent="1">
            <mxGeometry x="430" y="220" width="120" height="60" as="geometry" />
          </mxCell>
        </UserObject>
        <UserObject label="Xcode Archive &amp; Export for iOS" lucidchartObjectId=".erudL2_~y0f" id="Cbtl5HurtMTCQ24Q6cKs-20">
          <mxCell style="html=1;overflow=block;blockSpacing=1;whiteSpace=wrap;fontSize=13.3;fontColor=#333333;fontStyle=2;spacingLeft=8.4;spacingRight=8.4;spacingTop=2.4;spacing=3.6;strokeOpacity=0;fillOpacity=100;rounded=1;absoluteArcSize=1;arcSize=12;fillColor=#ffaf28;strokeWidth=1.5;" vertex="1" parent="1">
            <mxGeometry x="610" y="220" width="120" height="60" as="geometry" />
          </mxCell>
        </UserObject>
        <UserObject label="Deploy to Bitrise" lucidchartObjectId="_orud7lGFKuM" id="Cbtl5HurtMTCQ24Q6cKs-21">
          <mxCell style="html=1;overflow=block;blockSpacing=1;whiteSpace=wrap;fontSize=13.3;fontColor=#333333;fontStyle=2;spacingLeft=8.4;spacingRight=8.4;spacingTop=2.4;spacing=3.6;strokeOpacity=0;fillOpacity=100;rounded=1;absoluteArcSize=1;arcSize=12;fillColor=#ffaf28;strokeWidth=1.5;" vertex="1" parent="1">
            <mxGeometry x="610" y="334" width="120" height="74" as="geometry" />
          </mxCell>
        </UserObject>
        <UserObject label="Slack Message" lucidchartObjectId="8prumOO8gu4d" id="Cbtl5HurtMTCQ24Q6cKs-22">
          <mxCell style="html=1;overflow=block;blockSpacing=1;whiteSpace=wrap;fontSize=13.3;fontColor=#333333;fontStyle=2;spacingLeft=8.4;spacingRight=8.4;spacingTop=2.4;spacing=3.6;strokeOpacity=0;fillOpacity=100;rounded=1;absoluteArcSize=1;arcSize=12;fillColor=#ffaf28;strokeWidth=1.5;" vertex="1" parent="1">
            <mxGeometry x="610" y="462" width="120" height="74" as="geometry" />
          </mxCell>
        </UserObject>
        <UserObject label="Xcode Archive &amp; Export for iOS" lucidchartObjectId="dtrukG6ImYEX" id="Cbtl5HurtMTCQ24Q6cKs-23">
          <mxCell style="html=1;overflow=block;blockSpacing=1;whiteSpace=wrap;fontSize=13.3;fontColor=#333333;fontStyle=2;spacingLeft=8.4;spacingRight=8.4;spacingTop=2.4;spacing=3.6;strokeOpacity=0;fillOpacity=100;rounded=1;absoluteArcSize=1;arcSize=12;fillColor=#ffaf28;strokeWidth=1.5;" vertex="1" parent="1">
            <mxGeometry x="786" y="341" width="120" height="60" as="geometry" />
          </mxCell>
        </UserObject>
        <UserObject label="Deploy to Bitrise" lucidchartObjectId="dtruurS-KQro" id="Cbtl5HurtMTCQ24Q6cKs-24">
          <mxCell style="html=1;overflow=block;blockSpacing=1;whiteSpace=wrap;fontSize=13.3;fontColor=#333333;fontStyle=2;spacingLeft=8.4;spacingRight=8.4;spacingTop=2.4;spacing=3.6;strokeOpacity=0;fillOpacity=100;rounded=1;absoluteArcSize=1;arcSize=12;fillColor=#ffaf28;strokeWidth=1.5;" vertex="1" parent="1">
            <mxGeometry x="786" y="462" width="120" height="74" as="geometry" />
          </mxCell>
        </UserObject>
        <UserObject label="Slack Message" lucidchartObjectId="dtru3oibIlFv" id="Cbtl5HurtMTCQ24Q6cKs-25">
          <mxCell style="html=1;overflow=block;blockSpacing=1;whiteSpace=wrap;fontSize=13.3;fontColor=#333333;fontStyle=2;spacingLeft=8.4;spacingRight=8.4;spacingTop=2.4;spacing=3.6;strokeOpacity=0;fillOpacity=100;rounded=1;absoluteArcSize=1;arcSize=12;fillColor=#ffaf28;strokeWidth=1.5;" vertex="1" parent="1">
            <mxGeometry x="786" y="851" width="120" height="74" as="geometry" />
          </mxCell>
        </UserObject>
        <UserObject label="Deploy to App Store" lucidchartObjectId="xtrubd~heiyC" id="Cbtl5HurtMTCQ24Q6cKs-26">
          <mxCell style="html=1;overflow=block;blockSpacing=1;whiteSpace=wrap;fontSize=13.3;fontColor=#333333;fontStyle=2;spacingLeft=8.4;spacingRight=8.4;spacingTop=2.4;spacing=3.6;strokeOpacity=0;fillOpacity=100;rounded=1;absoluteArcSize=1;arcSize=12;fillColor=#ffaf28;strokeWidth=1.5;" vertex="1" parent="1">
            <mxGeometry x="786" y="596" width="120" height="74" as="geometry" />
          </mxCell>
        </UserObject>
        <UserObject label="Get versionName and versionCode " lucidchartObjectId="jurunFqUuaa6" id="Cbtl5HurtMTCQ24Q6cKs-27">
          <mxCell style="html=1;overflow=block;blockSpacing=1;whiteSpace=wrap;fontSize=13.3;fontColor=#333333;fontStyle=2;spacingLeft=8.4;spacingRight=8.4;spacingTop=2.4;spacing=3.6;strokeOpacity=0;fillOpacity=100;rounded=1;absoluteArcSize=1;arcSize=12;fillColor=#ffaf28;strokeWidth=1.5;" vertex="1" parent="1">
            <mxGeometry x="946" y="333" width="120" height="89" as="geometry" />
          </mxCell>
        </UserObject>
        <UserObject label="Android Sign" lucidchartObjectId="YuruPUzsFged" id="Cbtl5HurtMTCQ24Q6cKs-28">
          <mxCell style="html=1;overflow=block;blockSpacing=1;whiteSpace=wrap;fontSize=13.3;fontColor=#333333;fontStyle=2;spacingLeft=8.4;spacingRight=8.4;spacingTop=2.4;spacing=3.6;strokeOpacity=0;fillOpacity=100;rounded=1;absoluteArcSize=1;arcSize=12;fillColor=#ffaf28;strokeWidth=1.5;" vertex="1" parent="1">
            <mxGeometry x="948" y="474" width="120" height="74" as="geometry" />
          </mxCell>
        </UserObject>
        <UserObject label="Deploy to Bitrise" lucidchartObjectId="Zuru7JXfT0To" id="Cbtl5HurtMTCQ24Q6cKs-29">
          <mxCell style="html=1;overflow=block;blockSpacing=1;whiteSpace=wrap;fontSize=13.3;fontColor=#333333;fontStyle=2;spacingLeft=8.4;spacingRight=8.4;spacingTop=2.4;spacing=3.6;strokeOpacity=0;fillOpacity=100;rounded=1;absoluteArcSize=1;arcSize=12;fillColor=#ffaf28;strokeWidth=1.5;" vertex="1" parent="1">
            <mxGeometry x="948" y="600" width="120" height="74" as="geometry" />
          </mxCell>
        </UserObject>
        <UserObject label="Google Play Deploy" lucidchartObjectId="gvruvi5EiK_B" id="Cbtl5HurtMTCQ24Q6cKs-30">
          <mxCell style="html=1;overflow=block;blockSpacing=1;whiteSpace=wrap;fontSize=13.3;fontColor=#333333;fontStyle=2;spacingLeft=8.4;spacingRight=8.4;spacingTop=2.4;spacing=3.6;strokeOpacity=0;fillOpacity=100;rounded=1;absoluteArcSize=1;arcSize=12;fillColor=#ffaf28;strokeWidth=1.5;" vertex="1" parent="1">
            <mxGeometry x="948" y="726" width="120" height="74" as="geometry" />
          </mxCell>
        </UserObject>
        <UserObject label="Firebase dSYM Upload *" lucidchartObjectId="6vrutlDMgGq-" id="Cbtl5HurtMTCQ24Q6cKs-31">
          <mxCell style="html=1;overflow=block;blockSpacing=1;whiteSpace=wrap;fontSize=13.3;fontColor=#333333;spacingLeft=8.4;spacingRight=8.4;spacingTop=2.4;spacing=3.6;strokeOpacity=0;fillOpacity=100;rounded=1;absoluteArcSize=1;arcSize=12;fillColor=#ffd99a;strokeWidth=1.5;" vertex="1" parent="1">
            <mxGeometry x="786" y="730" width="120" height="60" as="geometry" />
          </mxCell>
        </UserObject>
        <UserObject label="Slack Message" lucidchartObjectId="cxruQ7j~sJkK" id="Cbtl5HurtMTCQ24Q6cKs-32">
          <mxCell style="html=1;overflow=block;blockSpacing=1;whiteSpace=wrap;fontSize=13.3;fontColor=#333333;fontStyle=2;spacingLeft=8.4;spacingRight=8.4;spacingTop=2.4;spacing=3.6;strokeOpacity=0;fillOpacity=100;rounded=1;absoluteArcSize=1;arcSize=12;fillColor=#ffaf28;strokeWidth=1.5;" vertex="1" parent="1">
            <mxGeometry x="946" y="852" width="120" height="74" as="geometry" />
          </mxCell>
        </UserObject>
        <UserObject label="" lucidchartObjectId="FxrukShmPRgi" id="Cbtl5HurtMTCQ24Q6cKs-33">
          <mxCell style="html=1;jettySize=18;whiteSpace=wrap;fontSize=13;strokeColor=#333333;strokeOpacity=100;strokeWidth=0.8;rounded=1;arcSize=24;edgeStyle=orthogonalEdgeStyle;startArrow=none;endArrow=block;endFill=1;exitX=0.5;exitY=1;exitPerimeter=0;entryX=0.485;entryY=0.001;entryPerimeter=0;" edge="1" parent="1" source="Cbtl5HurtMTCQ24Q6cKs-27" target="Cbtl5HurtMTCQ24Q6cKs-28">
            <mxGeometry width="100" height="100" relative="1" as="geometry">
              <Array as="points" />
            </mxGeometry>
          </mxCell>
        </UserObject>
        <UserObject label="" lucidchartObjectId="Kxru9qBDPRx_" id="Cbtl5HurtMTCQ24Q6cKs-34">
          <mxCell style="html=1;jettySize=18;whiteSpace=wrap;fontSize=13;strokeColor=#333333;strokeOpacity=100;strokeWidth=0.8;rounded=1;arcSize=24;edgeStyle=orthogonalEdgeStyle;startArrow=none;endArrow=block;endFill=1;exitX=0.5;exitY=1;exitPerimeter=0;entryX=0.5;entryY=0;entryPerimeter=0;" edge="1" parent="1" source="Cbtl5HurtMTCQ24Q6cKs-28" target="Cbtl5HurtMTCQ24Q6cKs-29">
            <mxGeometry width="100" height="100" relative="1" as="geometry">
              <Array as="points" />
            </mxGeometry>
          </mxCell>
        </UserObject>
        <UserObject label="" lucidchartObjectId="Pxru.sfxEt4~" id="Cbtl5HurtMTCQ24Q6cKs-35">
          <mxCell style="html=1;jettySize=18;whiteSpace=wrap;fontSize=13;strokeColor=#333333;strokeOpacity=100;strokeWidth=0.8;rounded=1;arcSize=24;edgeStyle=orthogonalEdgeStyle;startArrow=none;endArrow=block;endFill=1;exitX=0.5;exitY=1;exitPerimeter=0;entryX=0.5;entryY=0;entryPerimeter=0;" edge="1" parent="1" source="Cbtl5HurtMTCQ24Q6cKs-29" target="Cbtl5HurtMTCQ24Q6cKs-30">
            <mxGeometry width="100" height="100" relative="1" as="geometry">
              <Array as="points" />
            </mxGeometry>
          </mxCell>
        </UserObject>
        <UserObject label="" lucidchartObjectId="VxrunNutGis2" id="Cbtl5HurtMTCQ24Q6cKs-36">
          <mxCell style="html=1;jettySize=18;whiteSpace=wrap;fontSize=13;strokeColor=#333333;strokeOpacity=100;strokeWidth=0.8;rounded=1;arcSize=24;edgeStyle=orthogonalEdgeStyle;startArrow=none;endArrow=block;endFill=1;exitX=0.5;exitY=1;exitPerimeter=0;entryX=0.515;entryY=0;entryPerimeter=0;" edge="1" parent="1" source="Cbtl5HurtMTCQ24Q6cKs-30" target="Cbtl5HurtMTCQ24Q6cKs-32">
            <mxGeometry width="100" height="100" relative="1" as="geometry">
              <Array as="points" />
            </mxGeometry>
          </mxCell>
        </UserObject>
        <UserObject label="" lucidchartObjectId="IzruByj3__fK" id="Cbtl5HurtMTCQ24Q6cKs-37">
          <mxCell style="html=1;jettySize=18;whiteSpace=wrap;fontSize=13;strokeColor=#333333;strokeOpacity=100;strokeWidth=0.8;rounded=1;arcSize=24;edgeStyle=orthogonalEdgeStyle;startArrow=none;endArrow=block;endFill=1;exitX=0.5;exitY=0.999;exitPerimeter=0;entryX=0.5;entryY=0;entryPerimeter=0;" edge="1" parent="1" source="Cbtl5HurtMTCQ24Q6cKs-23" target="Cbtl5HurtMTCQ24Q6cKs-24">
            <mxGeometry width="100" height="100" relative="1" as="geometry">
              <Array as="points" />
            </mxGeometry>
          </mxCell>
        </UserObject>
        <UserObject label="iOS" lucidchartObjectId="JGruHLVM4bM9" id="Cbtl5HurtMTCQ24Q6cKs-38">
          <mxCell style="html=1;overflow=block;blockSpacing=1;whiteSpace=wrap;fontSize=13.3;fontColor=#333333;fontStyle=3;spacingLeft=8.4;spacingRight=8.4;spacingTop=2.4;spacing=3.6;strokeOpacity=0;fillOpacity=100;rounded=1;absoluteArcSize=1;arcSize=12;fillColor=#ffaf28;strokeWidth=1.5;" vertex="1" parent="1">
            <mxGeometry x="786" y="220" width="120" height="60" as="geometry" />
          </mxCell>
        </UserObject>
        <UserObject label="Android" lucidchartObjectId="SGruxqBtHxgC" id="Cbtl5HurtMTCQ24Q6cKs-39">
          <mxCell style="html=1;overflow=block;blockSpacing=1;whiteSpace=wrap;fontSize=13.3;fontColor=#333333;fontStyle=3;spacingLeft=8.4;spacingRight=8.4;spacingTop=2.4;spacing=3.6;strokeOpacity=0;fillOpacity=100;rounded=1;absoluteArcSize=1;arcSize=12;fillColor=#ffaf28;strokeWidth=1.5;" vertex="1" parent="1">
            <mxGeometry x="948" y="220" width="120" height="60" as="geometry" />
          </mxCell>
        </UserObject>
        <UserObject label="" lucidchartObjectId="kOrujTyRgrDE" id="Cbtl5HurtMTCQ24Q6cKs-40">
          <mxCell style="html=1;jettySize=18;whiteSpace=wrap;fontSize=13;strokeColor=#333333;strokeOpacity=100;strokeWidth=0.8;rounded=1;arcSize=24;edgeStyle=orthogonalEdgeStyle;startArrow=none;endArrow=block;endFill=1;exitX=0.5;exitY=0.999;exitPerimeter=0;entryX=0.5;entryY=0.001;entryPerimeter=0;" edge="1" parent="1" source="Cbtl5HurtMTCQ24Q6cKs-16" target="Cbtl5HurtMTCQ24Q6cKs-17">
            <mxGeometry width="100" height="100" relative="1" as="geometry">
              <Array as="points" />
            </mxGeometry>
          </mxCell>
        </UserObject>
        <UserObject label="" lucidchartObjectId="pOruMa57iQ-Q" id="Cbtl5HurtMTCQ24Q6cKs-41">
          <mxCell style="html=1;jettySize=18;whiteSpace=wrap;fontSize=13;strokeColor=#333333;strokeOpacity=100;strokeWidth=0.8;rounded=1;arcSize=24;edgeStyle=orthogonalEdgeStyle;startArrow=none;endArrow=block;endFill=1;exitX=0.5;exitY=0.999;exitPerimeter=0;entryX=0.5;entryY=0.001;entryPerimeter=0;" edge="1" parent="1" source="Cbtl5HurtMTCQ24Q6cKs-17" target="Cbtl5HurtMTCQ24Q6cKs-8">
            <mxGeometry width="100" height="100" relative="1" as="geometry">
              <Array as="points" />
            </mxGeometry>
          </mxCell>
        </UserObject>
        <UserObject label="" lucidchartObjectId="tOrunuB6CUS~" id="Cbtl5HurtMTCQ24Q6cKs-42">
          <mxCell style="html=1;jettySize=18;whiteSpace=wrap;fontSize=13;strokeColor=#333333;strokeOpacity=100;strokeWidth=0.8;rounded=1;arcSize=24;edgeStyle=orthogonalEdgeStyle;startArrow=none;endArrow=block;endFill=1;exitX=0.5;exitY=0.999;exitPerimeter=0;entryX=0.5;entryY=0.001;entryPerimeter=0;" edge="1" parent="1" source="Cbtl5HurtMTCQ24Q6cKs-8" target="Cbtl5HurtMTCQ24Q6cKs-18">
            <mxGeometry width="100" height="100" relative="1" as="geometry">
              <Array as="points" />
            </mxGeometry>
          </mxCell>
        </UserObject>
        <UserObject label="" lucidchartObjectId="DOruPIf6FwBn" id="Cbtl5HurtMTCQ24Q6cKs-43">
          <mxCell style="html=1;jettySize=18;whiteSpace=wrap;fontSize=13;strokeColor=#333333;strokeOpacity=100;strokeWidth=0.8;rounded=1;arcSize=24;edgeStyle=orthogonalEdgeStyle;startArrow=none;endArrow=block;endFill=1;exitX=0.5;exitY=0.999;exitPerimeter=0;entryX=0.5;entryY=0.001;entryPerimeter=0;" edge="1" parent="1" source="Cbtl5HurtMTCQ24Q6cKs-19" target="Cbtl5HurtMTCQ24Q6cKs-7">
            <mxGeometry width="100" height="100" relative="1" as="geometry">
              <Array as="points" />
            </mxGeometry>
          </mxCell>
        </UserObject>
        <UserObject label="" lucidchartObjectId="HOruiKq.u0MS" id="Cbtl5HurtMTCQ24Q6cKs-44">
          <mxCell style="html=1;jettySize=18;whiteSpace=wrap;fontSize=13;strokeColor=#333333;strokeOpacity=100;strokeWidth=0.8;rounded=1;arcSize=24;edgeStyle=orthogonalEdgeStyle;startArrow=none;endArrow=block;endFill=1;exitX=0.5;exitY=0.999;exitPerimeter=0;entryX=0.5;entryY=0;entryPerimeter=0;" edge="1" parent="1" source="Cbtl5HurtMTCQ24Q6cKs-20" target="Cbtl5HurtMTCQ24Q6cKs-21">
            <mxGeometry width="100" height="100" relative="1" as="geometry">
              <Array as="points" />
            </mxGeometry>
          </mxCell>
        </UserObject>
        <UserObject label="" lucidchartObjectId="MOruA.wlEZ.Q" id="Cbtl5HurtMTCQ24Q6cKs-45">
          <mxCell style="html=1;jettySize=18;whiteSpace=wrap;fontSize=13;strokeColor=#333333;strokeOpacity=100;strokeWidth=0.8;rounded=1;arcSize=24;edgeStyle=orthogonalEdgeStyle;startArrow=none;endArrow=block;endFill=1;exitX=0.5;exitY=1;exitPerimeter=0;entryX=0.5;entryY=0;entryPerimeter=0;" edge="1" parent="1" source="Cbtl5HurtMTCQ24Q6cKs-21" target="Cbtl5HurtMTCQ24Q6cKs-22">
            <mxGeometry width="100" height="100" relative="1" as="geometry">
              <Array as="points" />
            </mxGeometry>
          </mxCell>
        </UserObject>
        <UserObject label="" lucidchartObjectId="-Oruj3MwOjLM" id="Cbtl5HurtMTCQ24Q6cKs-46">
          <mxCell style="html=1;jettySize=18;whiteSpace=wrap;fontSize=13;strokeColor=#333333;strokeOpacity=100;strokeWidth=0.8;rounded=1;arcSize=24;edgeStyle=orthogonalEdgeStyle;startArrow=none;endArrow=block;endFill=1;exitX=0.5;exitY=0.999;exitPerimeter=0;entryX=0.515;entryY=0;entryPerimeter=0;" edge="1" parent="1" source="Cbtl5HurtMTCQ24Q6cKs-39" target="Cbtl5HurtMTCQ24Q6cKs-27">
            <mxGeometry width="100" height="100" relative="1" as="geometry">
              <Array as="points" />
            </mxGeometry>
          </mxCell>
        </UserObject>
        <UserObject label="" lucidchartObjectId="CQru1w91zOjc" id="Cbtl5HurtMTCQ24Q6cKs-47">
          <mxCell style="html=1;jettySize=18;whiteSpace=wrap;fontSize=13;strokeColor=#333333;strokeOpacity=100;strokeWidth=0.8;rounded=1;arcSize=24;edgeStyle=orthogonalEdgeStyle;startArrow=none;endArrow=block;endFill=1;exitX=0.5;exitY=0.999;exitPerimeter=0;entryX=0.5;entryY=0.001;entryPerimeter=0;" edge="1" parent="1" source="Cbtl5HurtMTCQ24Q6cKs-38" target="Cbtl5HurtMTCQ24Q6cKs-23">
            <mxGeometry width="100" height="100" relative="1" as="geometry">
              <Array as="points" />
            </mxGeometry>
          </mxCell>
        </UserObject>
        <UserObject label="" lucidchartObjectId="jTru.kX6sCBi" id="Cbtl5HurtMTCQ24Q6cKs-48">
          <mxCell style="html=1;jettySize=18;whiteSpace=wrap;fontSize=13;strokeColor=#333333;strokeOpacity=100;strokeWidth=0.8;rounded=1;arcSize=24;edgeStyle=orthogonalEdgeStyle;startArrow=none;endArrow=block;endFill=1;" edge="1" parent="1">
            <mxGeometry width="100" height="100" relative="1" as="geometry">
              <Array as="points" />
              <mxPoint x="523" y="145" as="sourcePoint" />
              <mxPoint x="608" y="145" as="targetPoint" />
            </mxGeometry>
          </mxCell>
        </UserObject>
        <UserObject label="" lucidchartObjectId="GXru3LKcQh-7" id="Cbtl5HurtMTCQ24Q6cKs-49">
          <mxCell style="html=1;jettySize=18;whiteSpace=wrap;fontSize=13;strokeColor=#333333;strokeOpacity=100;strokeWidth=0.8;rounded=1;arcSize=24;edgeStyle=orthogonalEdgeStyle;startArrow=none;endArrow=block;endFill=1;exitX=0.5;exitY=1;exitPerimeter=0;entryX=0.5;entryY=0;entryPerimeter=0;" edge="1" parent="1" source="Cbtl5HurtMTCQ24Q6cKs-24" target="Cbtl5HurtMTCQ24Q6cKs-26">
            <mxGeometry width="100" height="100" relative="1" as="geometry">
              <Array as="points" />
            </mxGeometry>
          </mxCell>
        </UserObject>
        <UserObject label="" lucidchartObjectId="SXruyRI72aQW" id="Cbtl5HurtMTCQ24Q6cKs-50">
          <mxCell style="html=1;jettySize=18;whiteSpace=wrap;fontSize=13;strokeColor=#333333;strokeOpacity=100;strokeWidth=0.8;rounded=1;arcSize=24;edgeStyle=orthogonalEdgeStyle;startArrow=none;endArrow=block;endFill=1;exitX=0.5;exitY=1;exitPerimeter=0;entryX=0.5;entryY=0.001;entryPerimeter=0;" edge="1" parent="1" source="Cbtl5HurtMTCQ24Q6cKs-26" target="Cbtl5HurtMTCQ24Q6cKs-31">
            <mxGeometry width="100" height="100" relative="1" as="geometry">
              <Array as="points" />
            </mxGeometry>
          </mxCell>
        </UserObject>
        <UserObject label="" lucidchartObjectId="6Xru3WTzCloG" id="Cbtl5HurtMTCQ24Q6cKs-51">
          <mxCell style="html=1;jettySize=18;whiteSpace=wrap;fontSize=13;strokeColor=#333333;strokeOpacity=100;strokeWidth=0.8;rounded=1;arcSize=24;edgeStyle=orthogonalEdgeStyle;startArrow=none;endArrow=block;endFill=1;exitX=0.5;exitY=0.999;exitPerimeter=0;entryX=0.5;entryY=0;entryPerimeter=0;" edge="1" parent="1" source="Cbtl5HurtMTCQ24Q6cKs-31" target="Cbtl5HurtMTCQ24Q6cKs-25">
            <mxGeometry width="100" height="100" relative="1" as="geometry">
              <Array as="points" />
            </mxGeometry>
          </mxCell>
        </UserObject>
        <UserObject label="* indicates future state" lucidchartObjectId="rYrup-H8JSIG" id="Cbtl5HurtMTCQ24Q6cKs-52">
          <mxCell style="html=1;overflow=block;blockSpacing=1;whiteSpace=wrap;fontSize=13;fontColor=#333333;align=center;spacing=3.8;strokeOpacity=0;fillOpacity=0;rounded=1;absoluteArcSize=1;arcSize=12;fillColor=#ffffff;strokeWidth=0.8;" vertex="1" parent="1">
            <mxGeometry x="838" y="985" width="258" height="26" as="geometry" />
          </mxCell>
        </UserObject>
      </root>
    </mxGraphModel>
  </diagram>
</mxfile>
